<svg xmlns="http://www.w3.org/2000/svg" id="a" viewBox="0 0 470.70302 286.53375"><defs><style>.b{fill:#f8dbc2;}.c{fill:#0082e6;}.d{fill:#eae9ee;}.e{fill:#eda566;}.f{fill:#fff;}.g{fill:#9bccee;}.h{fill:#cce6fa;}.i{fill:#b27c4d;}.j{fill:#161b23;}.k{fill:#0c9bf2;}.l{fill:#2d3c4d;}.m{fill:#4897d2;}</style></defs><rect class="f" x="-.00005" y=".00002" width="470.70312" height="286.53375"/><path class="h" d="M469.39021,257.59688S413.65986,67.4833,183.7021,67.4833c-201.70959,0-105.29907,190.11359-105.29907,190.11359H469.39021Z"/><path class="e" d="M292.04572,97.48891c-3.58276,21.65558-17.32898,22.00391-17.32898,22.00391-11.80115,2.74982-9.51135,13.47754-9.51135,13.47754,1.96777,18.8891,31.20239,28.91968,31.20239,28.91968,32.77454,8.71637,57.76782-7.83917,57.76782-7.83917,13.32202-10.76129-.08618-29.17389-.08618-29.17389-5.74365-5.75958,4.63391-14.13135,4.63391-14.13135,7.02222-7.75006-.80579-15.34033-.80579-15.34033-4.23779-5.05933,1.01843-11.38715,1.01843-11.38715,7.12231-10.0899-1.6936-17.80774-1.6936-17.80774-7.75989-6.00507-1.83911-12.87976-1.83911-12.87976,7.87866-12.92719-9.30432-15.17371-9.30432-15.17371,0,0,11.5105-14.06274-7.172-17.61884,0,0-6.96497,.28632-9.56287-5.26135,0,0-6.00146-13.16425-15.35388-2.17096,0,0-3.48718,4.59723-9.198,2.25342-.25098-.10303-10.09277-4.62598-10.42749,5.56818,0,0,1.24963,7.40527-4.13367,10.45355,0,0-8.26147,4.83313-1.93042,13.9809,0,0,5.85144,6.19189,5.6051,21.3822-.25757,15.88269-1.88,30.74487-1.88,30.74487Z"/><path class="e" d="M324.05158,99.32039c1.08911,21.92285,14.70593,23.83691,14.70593,23.83691,11.4104,4.078,7.91174,14.47455,7.91174,14.47455-4.1095,18.54138-34.29749,25.17163-34.29749,25.17163-33.55493,4.9209-56.49658-14.37756-56.49658-14.37756-12.00757-12.21069,3.41345-28.97363,3.41345-28.97363,6.36328-5.06677-2.9917-14.56769-2.9917-14.56769-6.09229-8.50049,2.55042-15.14825,2.55042-15.14825,4.78723-4.54291,.28711-11.42902,.28711-11.42902-5.9248-10.83649,3.71387-17.49829,3.71387-17.49829,8.39429-5.08069,3.29639-12.58588,3.29639-12.58588-6.35266-13.74158,10.97449-14.01337,10.97449-14.01337,0,0-9.8313-15.28394,9.13489-16.68573,0,0,6.88684,1.07892,10.10059-4.13617,0,0,7.46399-12.39374,15.50134-.40533,0,0,2.93994,4.96497,8.88098,3.28784,.26111-.07367,10.55444-3.44446,9.72424,6.72137,0,0-2.0863,7.21436,2.91418,10.85681,0,0,7.65625,5.74396,.323,14.1098,0,0-6.51953,5.48407-8.00757,20.60333-1.55579,15.80841-1.63928,30.75867-1.63928,30.75867Z"/><rect class="b" x="278.30021" y="132.47288" width="45.50727" height="21.44726" rx="6.64373" ry="6.64373" transform="translate(140.89141 435.57751) rotate(-86.72479)"/><path class="b" d="M277.47053,125.72176c-1.75977,15.3269,7.99695,29.15265,21.68164,30.72388,13.68469,1.57129,26.32117-9.68329,28.08093-25.01019l9.29065-80.91595c1.75989-15.32684-7.99683-29.15259-21.68152-30.72388-13.68469-1.57123-26.32117,9.68335-28.08093,25.01019l-9.29077,80.91595Z"/><path class="e" d="M337.25776,25.99142l-.89209,16.25153s-2.75415,2.60394-2.479,7.09113c0,0,1.67798,19.44342-4.56238,59.00714l-.01208,.15161c-.01135,.28949,.20557,1.4519,4.99365-.88513,.07312-.03571,.13525-.1073,.16699-.20013,.43481-1.27319,8.01965-35.14056,8.96924-65.90497,0,0,.63586-8.39093-6.18433-15.51117Z"/><path class="b" d="M323.50202,114.93716c-.86951,5.02051,1.98169,9.7063,6.36841,10.46594,4.3866,.7597,8.64746-2.6944,9.51685-7.71497,.86951-5.02051-1.98169-9.7063-6.36829-10.46594-4.38672-.75964-8.64758,2.69446-9.51697,7.71497Z"/><path class="f" d="M289.62983,121.3832c-1.28015,1.12988,.82446,9.93286,1.88062,13.36212,6.4021,20.78833,25.00854-7.19568,24.87769-10.01727-.15112-3.25824-7.44189,.9411-18.53772-1.18683-5.93469-1.13812-6.90955-3.31519-8.22058-2.15802Z"/><path class="e" d="M309.45258,45.21047s7.39478,16.07727,21.76294,30.01965l1.59973,21.43909s9.29907-62.63202,4.4425-70.6778c-4.85657-8.04572-20.23035-11.65808-22.78442-12.35077,0,0-33.2561,9.14404-5.02075,31.56982Z"/><path class="e" d="M317.95918,32.00014s-9.63391,21.46985-33.84912,24.40521l-4.25122-9.83557s.50586-15.76013,9.76941-23.87958c9.26355-8.11938,16.70312,6.59686,28.33093,9.30994Z"/><path class="i" d="M333.68269,87.86782l-18.34509-10.05493s.35486-1.47058,1.98718-3.83612c0,0,14.74878,7.89667,17.3335,10.01477,0,0-.01221,1.54382-.97559,3.87628Z"/><path class="i" d="M280.65632,81.77871l20.42102-4.54163s.06934-1.51117-.83887-4.23804c0,0-16.3656,3.47162-19.43835,4.7851,0,0-.4187,1.48596-.1438,3.99457Z"/><ellipse class="l" cx="318.45881" cy="95.29589" rx="3.62145" ry="1.96878" transform="translate(187.45764 400.80532) rotate(-83.44988)"/><path class="l" d="M318.37873,95.39266c-.35132-.06122-.58655-.39581-.52527-.74725,.06079-.35162,.39661-.58325,.74719-.52557,2.66833,.46448,3.17139-.19574,3.21448-.26263,.08643-.31903,.40564-.5246,.73535-.46692,.3512,.06183,.58606,.39673,.52429,.74799-.05164,.29388-.4436,1.5849-3.30981,1.4209-.40942-.02344-.86951-.0766-1.38623-.1665Zm3.42358-1.47791l.00012-.00098-.00012,.00098Zm.00012-.0011l.00037-.00061-.00037,.00061Z"/><path class="l" d="M295.79206,92.99972c-.22815,1.987-1.28882,3.49725-2.36902,3.37317-1.0802-.12402-1.771-1.83533-1.54285-3.82233,.22815-1.98706,1.28882-3.49725,2.36902-3.37323s1.771,1.83533,1.54285,3.82239Z"/><path class="l" d="M289.40388,90.72036c-.02136-.35602,.25012-.66193,.6062-.68323,.33313-.01953,.62769,.22089,.67725,.54767,.03516,.07153,.46191,.78485,3.16357,.62762,.35718-.01984,.66199,.2511,.68237,.60736,.02063,.35614-.2511,.66174-.60706,.68243-.52405,.0304-.98657,.03076-1.39624,.00732-2.8656-.164-3.1084-1.49133-3.1261-1.78918Zm1.28955-.0769l-.00012-.00189,.00012,.00189Zm-.00012-.00208v0Zm0-.00092l.00012-.00079-.00012,.00079Zm-.00024-.00116v0Z"/><path class="f" d="M329.43305,122.40584c-.05237,.91541,.64734,1.69989,1.56262,1.75232,.91541,.05237,1.69995-.64728,1.75232-1.56262,.05237-.91541-.64722-1.69995-1.56262-1.75232s-1.69983,.64722-1.75232,1.56262Z"/><path class="l" d="M318.72907,257.59701c6.07056-21.26996,7.26477-53.38208,6.89209-60.34473-.49341-9.21875-38.10559-34.41302-50.69885,3.18121,0,0-2.24609,36.92328-1.41724,57.15588"/><path class="l" d="M255.4101,177.00881s25.3418,10.77954,31.60193,.49274c3.01086-6.67139,2.69348-21.16815-28.46265-22.38995,0,0-1.578,8.16602-3.13928,21.89722Z"/><path class="l" d="M286.40669,158.96993c7.61108-2.09656,18.43701-3.48077,30.71362-.27045,5.29553,1.38477,8.99084,6.17834,9.13647,11.65002,.3916,14.70544,.25818,44.02484-6.44873,53.85004-7.45288,10.91803-32.8479,14.08282-40.24915,3.01385-5.12817-7.66937-5.28918-36.9234-4.9646-52.97284,.14441-7.13928,4.9281-13.37433,11.81238-15.27063Z"/><path class="b" d="M319.75739,203.49282l-.01599-.01208c-1.46777-.7558-5.11511-.8913-10.22485-1.71222l-.05322-.00677c-1.87036-.29932-3.93921-.69-6.16907-1.24353-3.23132-1.07507-7.31152-2.46411-11.49133-3.95367-1.04724-.37195-2.09998-.74799-3.1499-1.13873-3.74512-1.3689-9.57837-3.67639-10.47705-4.07782s-1.72302-1.32019-3.01282-2.16492c-.20679-.22681-.42944-.44324-.68359-.63483-2.22986-1.68103-5.40039-1.23621-7.08154,.99377-.16602,.22015-.30554,.45184-.4303,.68799l-.05774,.08624-.08435,.14514-.13928,.26233-.08997,.20782-.08838,.21716-.078,.25842-.05127,.17877c-.02954,.09467-.04443,.19189-.06348,.29462l-.02686,.14655c-.01758,.11188-.026,.2226-.03418,.33337l-.01355,.10645c-.00574,.12946-.00732,.25342-.00378,.38165v.06647c.00488,.13745,.01929,.2735,.03894,.41351l-.00146,.02411c.15991,1.17255,.76392,2.28766,1.7688,3.0705l.00525,.00403,.06934,.05219,.20471,.08618,.06934,.05798c.7749,.58423,1.66382,.90576,2.56384,.99103,5.41541,2.14325,14.61853,5.60126,30.91919,13.28247l.06665,.03351,11.00305,5.66455c.30774,.19006,.63013,.34943,.94971,.49048l.06665,.03351,.00415-.00543c.56201,.24017,1.15125,.40021,1.74976,.49255,1.85437,.28729,3.77319-.1535,5.34033-1.23517l.02527-.02252c.61987-.43463,1.18408-.96143,1.66174-1.59503,1.52942-2.02869,1.85571-4.58838,1.09851-6.82941-.4541-1.36938-1.31921-2.6145-2.55444-3.54578-.48462-.36536-.99609-.65051-1.52881-.88544Z"/><path class="b" d="M329.67268,187.25149l-5.75647,24.67426s-12.16895,5.19434-13.12537,.70764c-.95654-4.48669,7.11584-32.21545,7.11584-32.21545l11.76599,6.83356Z"/><path class="l" d="M309.47822,188.78048s3.82288-27.27258,15.86462-27.33575c7.2688,.85809,18.26465,3.90326,7.50818,30.78589,0,0-10.8009,2.28851-23.3728-3.45013Z"/><path class="h" d="M1.31013,258.28353H468.70319c.37939,0,.68701-.30664,.68701-.68652s-.30762-.68652-.68701-.68652H1.31013c-.37939,0-.68701,.30664-.68701,.68652s.30762,.68652,.68701,.68652Z"/><path class="m" d="M167.25275,43.07113c0,1.36975,.18701,2.70288,.51416,3.94476-.04688-.12781-.078-.27399-.10913-.40173-.49841-2.13684-2.25854-3.54303-4.14343-3.54303h3.7384Z"/><path class="m" d="M219.69904,43.07113h3.7384c-1.88489,0-3.64502,1.40619-4.14343,3.54303-.03113,.14606-.06226,.27393-.10901,.40173,.34265-1.24188,.51404-2.57501,.51404-3.94476Z"/><path class="m" d="M245.96101,243.56307c-.09351,.43829-.20239,.8584-.3114,1.27838l-.01562,.03656c-.07788,.23737-.14026,.49304-.21814,.73047-.10901,.32874-.21802,.65747-.34265,.98627,.12463-.3288,.23364-.65753,.32715-.98627,.10901-.32867,.20239-.67572,.2959-1.00446,.09351-.34698,.18689-.69397,.26477-1.04095Z"/><path class="j" d="M128.49848,97.47677c-.87231,0-1.60449,.84015-1.60449,1.88104v11.17712c0,1.04089,.73218,1.88104,1.60449,1.88104V244.69533c0,16.47333,11.38647,29.80536,25.43652,29.80536h79.08203c14.05005,0,25.4209-13.33203,25.4209-29.80536V110.49837c.88782,0,1.61987-.84015,1.61987-1.88116v-24.21686c0-1.04089-.73206-1.88104-1.61987-1.88104v-23.86981c0-16.47333-11.37085-29.80536-25.4209-29.80536h-79.08203c-14.05005,0-25.43652,13.33203-25.43652,29.80536v23.86981c-.87231,0-1.60449,.84015-1.60449,1.88104v11.19525c0,1.04102,.73218,1.88116,1.60449,1.88116Zm4.12769-37.89587c0-14.17212,9.7821-25.6413,21.854-25.6413h77.9917c12.07178,0,21.86938,11.46918,21.86938,25.6413V243.38045c0,14.15387-9.79761,25.6413-21.86938,25.6413h-77.9917c-12.0719,0-21.854-11.48743-21.854-25.6413V59.58089Z"/><path class="g" d="M167.25275,43.07113c0,1.36975,.18701,2.70288,.51416,3.94476-.04688-.12781-.078-.27399-.10913-.40173-.49841-2.13684-2.25854-3.54303-4.14343-3.54303h3.7384Z"/><path class="g" d="M219.69904,43.07113h3.7384c-1.88489,0-3.64502,1.40619-4.14343,3.54303-.03113,.14606-.06226,.27393-.10901,.40173,.34265-1.24188,.51404-2.57501,.51404-3.94476Z"/><path class="g" d="M245.96101,243.56307c-.09351,.43829-.20239,.8584-.3114,1.27838l-.01562,.03656c-.07788,.23737-.14026,.49304-.21814,.73047-.10901,.32874-.21802,.65747-.34265,.98627,.12463-.3288,.23364-.65753,.32715-.98627,.10901-.32867,.20239-.67572,.2959-1.00446,.09351-.34698,.18689-.69397,.26477-1.04095Z"/><path class="l" d="M232.47175,33.9396h-77.9917c-12.07178,0-21.86938,11.46918-21.86938,25.6413V243.30245c0,14.20441,9.82104,25.7193,21.93591,25.7193h77.85864c12.10632,0,21.92053-11.50677,21.92053-25.70117V59.58089c0-14.17212-9.7821-25.6413-21.854-25.6413Zm14.06567,204.18109c0,1.49756-.12463,2.97687-.3739,4.38306-.06226,.34698-.12451,.71228-.20251,1.05933-.07788,.34698-.17126,.69397-.26477,1.04095l-.04663,.23743-.01562,.03656c-.07788,.23737-.14026,.49304-.21814,.73047h-.0155c-.09351,.32874-.20251,.65747-.32715,.98627-.23364,.65747-.48279,1.27838-.77881,1.89935-.42053,.93146-.90344,1.80804-1.44873,2.64813-.17126,.27393-.35815,.56616-.54504,.82178-.3739,.54797-.77881,1.05927-1.19946,1.55243-3.34888,3.94476-7.99072,6.37378-13.11548,6.37378h-68.953c-10.28259,0-18.61816-9.77332-18.61816-21.82928V64.90041c0-12.0061,8.37817-21.82928,18.61816-21.82928h4.88831c1.73315,0,3.26306,1.3606,3.69678,3.32812,.04578,.20782,.09558,.41345,.14917,.61664,.09338,.3653,.20239,.71228,.32703,1.05933,.15576,.45654,.32715,.89484,.52966,1.33313,.17126,.38361,.35815,.74878,.56067,1.09576,.45166,.76715,.9657,1.49756,1.54211,2.13684,.18689,.23743,.3894,.43829,.60742,.63916l.07788,.09131c.20251,.18268,.40503,.38354,.62317,.54797,.12463,.10956,.24915,.20087,.37378,.29218,.62305,.47485,1.29285,.8949,1.9939,1.20532,.26477,.12787,.52954,.23743,.79431,.3288l.09338,.0365c.29602,.10956,.59192,.20087,.90344,.27399l.17139,.05469c.2959,.07312,.60754,.12787,.91907,.14618,.42053,.073,.85669,.10956,1.30835,.10956h29.76685c3.13086,0,5.9657-1.47931,8.02185-3.89008,.24927-.29211,.49841-.62085,.73218-.94971,.23352-.32867,.45166-.67572,.65417-1.02271s.3894-.71216,.56067-1.09576c.17151-.36523,.32715-.74872,.48291-1.15057v-.01825c.14026-.40173,.26489-.80359,.3739-1.22363,.0614-.2226,.11731-.44818,.16772-.67633,.42847-1.93921,1.94714-3.26843,3.65576-3.26843h4.90527c10.28259,0,18.62366,9.77338,18.62366,21.82941V238.12069Z"/><path class="d" d="M246.53742,64.82241V238.12069c0,1.49756-.12463,2.97687-.3739,4.38306-.06226,.34698-.12451,.71228-.20251,1.05933-.07788,.34698-.17126,.69397-.26477,1.04095-.09351,.32874-.18689,.67578-.2959,1.00446-.09351,.32874-.20251,.65747-.32715,.98627-.23364,.65747-.48279,1.27838-.77881,1.89935-.42053,.93146-.90344,1.80804-1.44873,2.64813-.17126,.27393-.35815,.56616-.54504,.82178-.3894,.54797-.77881,1.05927-1.19946,1.55243-3.34888,3.94476-7.99072,6.37378-13.11548,6.37378h-69.01953c-10.24939,0-18.55164-9.7525-18.55164-21.76953V64.82241c0-11.96228,8.349-21.75128,18.55164-21.75128h4.54822c1.88489,0,3.64502,1.40619,4.14343,3.54303,.03113,.12775,.06226,.27393,.10913,.40173,.09338,.3653,.18689,.71228,.32703,1.05933,.15576,.45654,.32715,.89484,.52966,1.33313,.17126,.38361,.35815,.74878,.56067,1.09576,.45166,.76715,.9657,1.49756,1.54211,2.13684,.18689,.23743,.3894,.4566,.60742,.63916l.07788,.09131c.20251,.18268,.40503,.38354,.62317,.54797,.12463,.10956,.24915,.20087,.37378,.29218,.62305,.47485,1.29285,.8949,1.9939,1.20532,.26477,.14612,.52954,.25568,.79431,.3288l.09338,.0365c.29602,.12781,.59192,.21912,.90344,.27399l.17139,.05469c.2959,.07312,.60754,.12787,.91907,.14618,.42053,.073,.85669,.10956,1.30835,.10956h29.76685c3.13086,0,5.9657-1.47931,8.02185-3.89008,.24927-.29211,.49841-.62085,.73218-.94971,.23352-.32867,.45166-.65741,.65417-1.02271,.20251-.34698,.3894-.71216,.56067-1.09576,.17151-.36523,.32715-.74872,.48291-1.15057v-.01825c.14026-.38348,.26489-.80359,.3739-1.22363,.04675-.12781,.07788-.25568,.10901-.40173,.49841-2.13684,2.25854-3.54303,4.14343-3.54303h4.54822c10.24939,0,18.55176,9.73413,18.55176,21.75128Z"/><path class="e" d="M205.22212,47.5638c0,1.58887-1.10583,2.88556-2.46094,2.88556h-11.51111c-1.3551,0-2.46118-1.29669-2.46118-2.88556s1.10608-2.86731,2.46118-2.86731h11.51111c1.3551,0,2.46094,1.27838,2.46094,2.86731Z"/><path class="b" d="M130.25251,93.19295s-5.60449-17.52698-16.70605,12.62714c-13.27844,36.06689-1.10547,91.74829,15.47559,88.43207s1.23047-101.0592,1.23047-101.0592Z"/><path class="b" d="M262.24543,126.76559s-18.16699-12.42401-20.75171,6.50012c-2.58472,18.92407,2.90625,27.76727,16.63354,25.55652,13.72729-2.21082,9.60901-26.52966,4.11816-32.05664Z"/><path class="e" d="M185.51508,47.76803c0,1.67694-1.3595,3.03644-3.03638,3.03644-1.677,0-3.0365-1.3595-3.0365-3.03644s1.3595-3.03644,3.0365-3.03644c1.67688,0,3.03638,1.35944,3.03638,3.03644Z"/><path class="b" d="M267.26491,170.20635h.47693c2.50958,0,4.54703,2.03746,4.54703,4.54703v25.48114c0,2.50926-2.0372,4.54646-4.54646,4.54646h-.47864c-2.50926,0-4.54646-2.0372-4.54646-4.54646v-25.48057c0-2.50989,2.03771-4.54761,4.54761-4.54761Z" transform="translate(35.4939 417.45783) rotate(-79.77309)"/><path class="b" d="M264.46772,194.65938c-1.90247,11.07654,.25049,13.14056,7.63831,15.40375,7.37317,2.26477,13.21655,.21082,14.91248-8.15472,1.95032-9.65784,4.29346-15.86957-5.89868-17.75946-16.12817-3.02258-15.24011,2.21851-16.6521,10.51044Z"/><path class="e" d="M246.46845,64.18105h-106.05396s-.00244-18.96613,15.95374-21.52484c1.15894-.18585,2.40454-.21228,3.73804-.21228h3.39307s3.18433-.15692,4.10071,3.32593c.91638,3.48285,2.53491,5.54889,2.53491,5.54889,0,0,3.01746,4.41199,9.78662,4.41199h29.17566s6.34094,.14893,9.66296-8.12177l.7085-2.34174s.99463-2.83551,3.48608-2.8233,5.99231-.00104,5.99231-.00104c0,0,17.52136,1.34351,17.52136,21.73816Z"/><path class="b" d="M311.01667,156.79793s-1.58972,17.36401-13.52563,21.22424c-1.02087,.33014-2.1283,.17969-2.83447-.64264-2.06702-2.4071-5.90698-8.45697-5.42932-19.82086,.64978-15.45679,21.78943-.76074,21.78943-.76074Z"/><path class="c" d="M216.76252,91.70339l3.99585,1.64532c.98132,.40411,1.65063,1.32703,1.7251,2.38574,.59521,8.46747,1.41895,45.63635-28.05457,61.85425-1.78882,.98431-3.95459,1.01123-5.75476,.04773-7.97327-4.26752-29.19556-19.61542-28.3739-61.7995,.02173-1.11365,.70337-2.11035,1.73328-2.53448l27.94934-11.50848c.86914-.35791,1.8446-.35791,2.71387,0l16.81653,6.92444,7.24927,2.98499Z"/><path class="k" d="M187.16462,153.66689c.65625,.45038,1.47852,1.11157,2.25098,1.08716V85.29195c-.27612,.00354-.55933,.05939-.82141,.16779l-24.5542,10.24109c-.53479,.22028-.90186,.72009-.95081,1.30029-.51733,6.24261,.18738,40.27301,24.07544,56.66577Z"/><circle class="f" cx="191.22138" cy="118.69655" r="16.8335"/><path class="e" d="M181.27607,113.83474c.17163-.25854,.52356-.32117,.7749-.1391,1.99084,1.44226,6.93628,5.68866,7.76453,6.64856l.30176,.34973c4.26904-6.34003,9.69141-11.67517,15.9502-15.73029,.33875-.21948,.7915-.12091,1.00574,.22131l2.45911,3.92871c.20715,.33087,.11377,.76752-.21216,.98236-6.60535,4.35468-12.0636,10.03015-16.07776,17.04559l-1.65442,3.27039c-.12439,.24591-.45679,.28979-.64014,.08411-2.58667-2.90027-8.93921-9.2655-12.13879-11.73004-.30054-.23151-.37231-.65479-.16248-.97089l2.62952-3.96045Z"/><path class="f" d="M206.46149,104.84676c.23999,0,.47461,.11926,.61169,.33813l2.45911,3.92877c.20715,.33093,.11377,.76752-.21216,.98236-6.60535,4.35468-12.0636,10.03015-16.07776,17.04559l-1.65442,3.27039c-.07092,.14026-.20959,.21478-.34949,.21478-.10559,0-.21191-.0423-.29065-.13068-2.58655-2.90027-8.93933-9.2655-12.13879-11.73004-.30054-.23151-.37231-.65479-.16248-.97089l2.62952-3.96045c.10522-.15851,.2782-.24341,.45422-.24341,.11108,0,.22339,.03381,.32068,.10431,1.99084,1.44226,6.93628,5.68872,7.76453,6.64856l.30176,.34973c4.26904-6.34003,9.69128-11.67517,15.9502-15.73029,.12207-.07904,.25891-.11688,.39404-.11688m0-.66864c-.26917,0-.53113,.07758-.75769,.22437-6.14771,3.98309-11.41187,9.09778-15.65796,15.21143-1.36133-1.37305-5.76331-5.12738-7.60254-6.45984-.20898-.15137-.45557-.23145-.71301-.23145-.40784,.00006-.78601,.2027-1.01135,.54224l-2.62952,3.96045c-.40161,.60504-.26477,1.42664,.31152,1.87054,3.07996,2.37244,9.33435,8.60284,12.04773,11.64532,.20081,.22516,.48865,.35431,.78979,.35431,.4021,0,.76465-.22284,.94617-.5816l1.64661-3.25494c3.87659-6.76971,9.21167-12.42358,15.85693-16.80463,.62354-.41101,.80786-1.26129,.41101-1.89545l-2.45923-3.92871c-.25549-.40833-.69604-.65204-1.17847-.65204Z"/><path class="g" d="M239.10297,97.22854c-1.07812,.37402-1.9259,1.2218-2.29993,2.29993l-.69934,2.01135,.00122-.00122-.07251,.05347-.07117-.05347-.69702-2.01135v.00122c-.37524-1.07935-1.2229-1.9259-2.30103-2.29993l-2.01025-.69812v-.00122l-.0498-.07001,.0498-.07007,2.01025-.69818v-.00116c1.07812-.37402,1.92578-1.22058,2.30103-2.29993l.69702-2.01135v.00122l.07117-.05347,.07251,.05347,.69934,2.01135-.00122-.00122c.37402,1.07812,1.2218,1.9259,2.29993,2.29993l2.01135,.69812v.00122l.0498,.07007-.0498,.07001-2.01135,.69934Z"/><path class="g" d="M229.8697,89.06899c-1.57178,.54651-2.8064,1.78223-3.35303,3.35413l-1.01929,2.93213-.10278,.07379-.10266-.07379-1.01929-2.93213c-.54663-1.57178-1.78137-2.8075-3.35315-3.35413l-2.93311-1.01831-.07288-.10272,.07288-.10272,2.93311-1.01831v-.00098c1.57178-.54553,2.8064-1.78131,3.35315-3.35315l1.01929-2.93311,.10266-.07379,.10278,.07379,1.01929,2.93311c.54651,1.57184,1.78125,2.8075,3.35303,3.35315l2.93323,1.01831v.00098l.07275,.10272-.07275,.10272-2.93323,1.01831Z"/><path class="g" d="M173.66425,156.86111c-1.5719,.54657-2.80652,1.78229-3.35315,3.35413l-1.01929,2.93213-.10278,.07379-.10266-.07379-1.01929-2.93213c-.54663-1.57178-1.78125-2.8075-3.35315-3.35413l-2.93311-1.01831-.07288-.10272,.07288-.10272,2.93311-1.01831v-.00098c1.57178-.54553,2.80652-1.78125,3.35315-3.35315l1.01929-2.93311,.10266-.07379,.10278,.07379,1.01929,2.93311c.54651,1.57184,1.78125,2.80756,3.35315,3.35315l2.93311,1.01831v.00098l.07275,.10272-.07275,.10272-2.93311,1.01831Z"/><path class="g" d="M162.22395,147.01296c-1.07812,.37402-1.9259,1.22174-2.29993,2.29987l-.69934,2.01135,.00122-.00116-.07239,.05341-.07129-.05341-.69702-2.01141v.00122c-.37512-1.07928-1.2229-1.92584-2.30103-2.29987l-2.01013-.69818v-.00116l-.04993-.07007,.04993-.07007,2.01013-.69818v-.00116c1.07812-.37402,1.9259-1.22058,2.30103-2.29987l.69702-2.01135v.00116l.07129-.05341,.07239,.05341,.69934,2.01135-.00122-.00116c.37402,1.07806,1.2218,1.92584,2.29993,2.29987l2.01135,.69818v.00116l.04993,.07007-.04993,.07007-2.01135,.69934Z"/><path class="l" d="M169.52277,183.28512v-1.24609l.45996-.05859c.28223-.04492,.34082-.13379,.34082-.41602v-6.79297l-.78613-.04395v-1.30566h3.64941v1.26074l-.38574,.03027c-.25293,.04395-.35645,.11816-.35645,.40039v3.01074l2.83301-3.33691v-.04492l-.66699-.04492v-1.27539h3.33691v1.24609l-.40039,.04492c-.28223,.04395-.40039,.17773-.59375,.40039l-1.91309,2.31348,2.56543,4.52344,.81641,.04492v1.29004h-4.04883v-1.24609l.51855-.05859c.28223-.04492,.28223-.20801,.16309-.40137l-1.45312-2.58008-1.15723,1.34961v1.61621l.62305,.04492v1.27539h-3.54492Z"/><path class="l" d="M182.50227,175.57223c1.12695,0,3.38086,.32715,3.38086,3.76758,0,2.89258-1.48242,4.15332-3.61816,4.15332-2.12109,0-3.35254-1.23145-3.35254-3.94531,0-3.14453,2.01758-3.97559,3.58984-3.97559Zm1.21582,3.99023c0-1.60156-.31152-2.44727-1.32031-2.44727-.96387,0-1.33496,.83008-1.33496,2.19531,0,1.34961,.17871,2.625,1.32031,2.625,.96387,0,1.33496-.88965,1.33496-2.37305Z"/><path class="l" d="M187.50129,177.47066c0-.28125-.11816-.41504-.35547-.42969l-.48926-.0293v-1.24609h2.74316v.91992h.03027c.45898-.81641,1.29004-1.11328,2.12012-1.11328,1.73535,0,2.66992,1.33496,2.66992,3.72363,0,2.59473-1.08301,4.19727-3.17383,4.19727-.53418,0-1.08301-.14844-1.4834-.37109v1.92773l1.27539,.07422v1.23145h-4.15234v-1.17188l.45996-.05957c.28125-.04395,.35547-.10352,.35547-.47461v-7.17871Zm2.07617,4.12402c.29688,.22168,.72754,.35547,1.09766,.35547,1.1123,0,1.4541-1.05273,1.4541-2.40234,0-1.2168-.22266-2.40332-1.30566-2.40332-.86035,0-1.24609,.68262-1.24609,1.15723v3.29297Z"/><path class="l" d="M201.43,177.73824c0,2.12109-1.85449,2.66992-4.18262,2.5957,.07422,.86035,.5332,1.57227,1.67578,1.57227,.83008,0,1.45312-.31152,1.86914-.59375l.59277,1.40918c-.19238,.11816-1.20117,.77148-2.72852,.77148-2.53711,0-3.50098-1.63184-3.50098-3.76758,0-2.26953,1.32031-4.15332,3.75293-4.15332,1.54199,0,2.52148,.68262,2.52148,2.16602Zm-2.62598-.66797c-.97852,0-1.52734,.89062-1.57129,1.89844,1.48242,.05957,2.3877-.19238,2.3877-1.12695,0-.54883-.3418-.77148-.81641-.77148Z"/><path class="l" d="M205.16828,178.61324v3.38184l1.23047,.05859v1.23145h-4.1084v-1.17188l.47461-.04395c.31152-.04492,.35645-.14844,.35645-.49023v-4.1084c0-.2959-.08887-.40039-.34082-.41504l-.50488-.04395v-1.24609h2.71484v1.1416h.0293c.2373-.59277,.875-1.33496,2.10645-1.33496,.42969,0,.96387,.07422,1.36426,.25293v2.66895l-1.67578,.11914v-.97852c0-.2373-.03027-.31152-.13379-.35645-.08887-.0293-.20801-.04395-.37109-.04395-.71191,0-1.1416,.59277-1.1416,1.37891Z"/><path class="l" d="M212.48078,176.98141c-.59277,0-1.03809,.25293-1.03809,.77148,0,.66699,.6377,.78613,1.42383,1.02344,1.08301,.32617,2.25488,.66699,2.25488,2.20996,0,1.60156-1.2168,2.50684-3.12988,2.50684-.9043,0-2.04688-.19336-2.625-.50488v-1.97266l1.4834-.11816v.66699c0,.22266,.04395,.31152,.22168,.37109,.19336,.07422,.50488,.13379,.80176,.13379,.69629,0,1.15625-.22266,1.15625-.86035s-.57812-.78613-1.40918-.97949c-1.06738-.28125-2.19434-.62207-2.19434-2.22461,0-1.58691,1.31934-2.43262,3.09961-2.43262,.81543,0,1.70508,.17871,2.3584,.53418v1.85449l-1.46875,.11816v-.6084c0-.23633-.0293-.34082-.20801-.40039-.22168-.07422-.48926-.08887-.72656-.08887Z"/><rect class="l" x="215.98176" y="178.2568" width="3.88574" height="1.57227"/><path class="l" d="M154.62922,191.28512c.43066-.45996,1.09766-.71289,1.82422-.71289,1.76562,0,2.83301,1.20215,2.83301,3.5752,0,2.92188-1.37891,4.3457-3.69238,4.3457-1.06836,0-2.40332-.29688-3.02637-.6377v-8.43945c0-.28223-.11816-.41504-.37012-.43066l-.47461-.0293v-1.24609h2.90625v3.5752Zm0,5.44238c.28223,.13379,.65332,.2373,1.05371,.2373,.94922,0,1.5127-.74121,1.5127-2.50586,0-1.26074-.26758-2.34375-1.4541-2.34375-.6377,0-1.1123,.38574-1.1123,.96387v3.64844Z"/><path class="l" d="M166.55598,192.73824c0,2.12109-1.85449,2.66992-4.18262,2.5957,.07422,.86035,.5332,1.57227,1.67578,1.57227,.83008,0,1.45312-.31152,1.86914-.59375l.59277,1.40918c-.19238,.11816-1.20117,.77148-2.72852,.77148-2.53711,0-3.50098-1.63184-3.50098-3.76758,0-2.26953,1.32031-4.15332,3.75293-4.15332,1.54199,0,2.52148,.68262,2.52148,2.16602Zm-2.62598-.66797c-.97852,0-1.52734,.89062-1.57129,1.89844,1.48242,.05957,2.3877-.19238,2.3877-1.12695,0-.54883-.3418-.77148-.81641-.77148Z"/><path class="l" d="M170.72395,191.98141c-.59277,0-1.03809,.25293-1.03809,.77148,0,.66699,.6377,.78613,1.42383,1.02344,1.08301,.32617,2.25488,.66699,2.25488,2.20996,0,1.60156-1.2168,2.50684-3.12988,2.50684-.9043,0-2.04688-.19336-2.625-.50488v-1.97266l1.4834-.11816v.66699c0,.22266,.04395,.31152,.22168,.37109,.19336,.07422,.50488,.13379,.80176,.13379,.69629,0,1.15625-.22266,1.15625-.86035s-.57812-.78613-1.40918-.97949c-1.06738-.28125-2.19434-.62207-2.19434-2.22461,0-1.58691,1.31934-2.43262,3.09961-2.43262,.81543,0,1.70508,.17871,2.3584,.53418v1.85449l-1.46875,.11816v-.6084c0-.23633-.0293-.34082-.20801-.40039-.22168-.07422-.48926-.08887-.72656-.08887Z"/><path class="l" d="M176.36066,194.50289c0,1.42383,.50488,2.3291,1.69141,2.3291,.54883,0,1.12695-.20801,1.70508-.6377l.75684,1.36426c-.6377,.51855-1.58691,.93457-2.72949,.93457-2.20996,0-3.5293-1.30566-3.5293-3.90137,0-2.96582,1.83887-4.01953,3.67773-4.01953,.89062,0,1.73535,.19336,2.37305,.56445v2.22461l-1.54199,.10352v-.80078c0-.2373-.01465-.35645-.2373-.41504-.16309-.04492-.3418-.07422-.51953-.07422-1.02344,0-1.64648,.74121-1.64648,2.32812Z"/><path class="l" d="M186.38801,193.52437c0-.81543-.17773-1.29004-1.02344-1.29004-.77148,0-1.27539,.60742-1.27539,1.42383v3.35156l.68164,.04395v1.23145h-3.55957v-1.17188l.44531-.04395c.28223-.04492,.37109-.11914,.37109-.49023v-7.14844c0-.31152-.07422-.41504-.35645-.42969l-.48926-.04492v-1.24609h2.87695v4.06445c.49023-.90527,1.33496-1.20215,2.10645-1.20215,1.67578,0,2.29883,.96484,2.29883,2.52148v3.91602l.71191,.04395v1.23145h-3.60352v-1.17188l.44434-.04395c.28223-.04492,.37109-.11914,.37109-.49023v-3.05469Z"/><path class="l" d="M196.28254,192.73824c0,2.12109-1.85449,2.66992-4.18262,2.5957,.07422,.86035,.5332,1.57227,1.67578,1.57227,.83008,0,1.45312-.31152,1.86914-.59375l.59277,1.40918c-.19238,.11816-1.20117,.77148-2.72852,.77148-2.53711,0-3.50098-1.63184-3.50098-3.76758,0-2.26953,1.32031-4.15332,3.75293-4.15332,1.54199,0,2.52148,.68262,2.52148,2.16602Zm-2.62598-.66797c-.97852,0-1.52734,.89062-1.57129,1.89844,1.48242,.05957,2.3877-.19238,2.3877-1.12695,0-.54883-.3418-.77148-.81641-.77148Z"/><path class="l" d="M200.02082,193.61324v3.38184l1.23047,.05859v1.23145h-4.1084v-1.17188l.47461-.04395c.31152-.04492,.35645-.14844,.35645-.49023v-4.1084c0-.2959-.08887-.40039-.34082-.41504l-.50488-.04395v-1.24609h2.71484v1.1416h.0293c.2373-.59277,.875-1.33496,2.10645-1.33496,.42969,0,.96387,.07422,1.36426,.25293v2.66895l-1.67578,.11914v-.97852c0-.2373-.03027-.31152-.13379-.35645-.08887-.0293-.20801-.04395-.37109-.04395-.71191,0-1.1416,.59277-1.1416,1.37891Z"/><path class="l" d="M204.93098,192.48629c0-.31152-.07422-.41602-.35645-.43066l-.48926-.04395v-1.24609h2.71484v1.02344h.0293c.37109-.69727,1.05273-1.2168,2.18066-1.2168,.75586,0,1.55664,.28223,1.9873,1.24609,.42969-.78613,1.1709-1.24609,2.19434-1.24609,1.43945,0,2.22559,.83105,2.22559,2.55176v3.88574h.01465l.71191,.04395v1.23145h-3.60449v-1.17188l.44531-.04395c.28125-.04492,.37012-.11914,.37012-.47461v-3.05566c0-.78613-.16309-1.30469-.99316-1.30469-.69727,0-1.15723,.59277-1.15723,1.34961v3.42578l.71191,.04395v1.23145h-3.60352v-1.17188l.44434-.04395c.28223-.04492,.37109-.11914,.37109-.47461v-3.04102c0-.77148-.11816-1.31934-.96387-1.31934-.71191,0-1.18652,.62207-1.18652,1.39355v3.38184l.68164,.05957v1.21582h-3.55957v-1.17188l.47461-.05957c.28223-.04395,.35645-.10352,.35645-.45898v-4.1084Z"/><path class="l" d="M219.77863,197.00973l.77148,.04395v1.23145h-3.66309v-1.17188l.48926-.04395c.28223-.04492,.34082-.11914,.34082-.49023v-4.09277c0-.31152-.07422-.41602-.35547-.43066l-.48926-.04395v-1.24609h2.90625v6.24414Zm-1.24512-9.50684c.72656,0,1.24512,.44434,1.24512,1.09766,0,.69629-.51855,1.1709-1.24512,1.1709-.75684,0-1.23145-.47461-1.23145-1.12695,0-.6377,.47461-1.1416,1.23145-1.1416Z"/><path class="l" d="M226.46906,193.55367c0-.83008-.17871-1.31934-1.00879-1.31934-.81543,0-1.29004,.65234-1.29004,1.4082v3.36719l.66699,.04395v1.23145h-3.55957v-1.17188l.47461-.04395c.28223-.04492,.35547-.11914,.35547-.45996v-4.12305c0-.31152-.07324-.41602-.35547-.43066l-.48926-.04395v-1.24609h2.74316v1.00879h.03027c.40039-.69727,1.1123-1.20215,2.22461-1.20215,1.46875,0,2.28418,.75684,2.28418,2.52148v3.91602l.71191,.04395v1.23145h-3.60449v-1.17188l.44531-.04395c.28125-.04492,.37109-.11914,.37109-.49023v-3.02539Z"/><path class="l" d="M234.89387,197.18746c-.35547,.51953-1.02344,.86035-1.85352,.86035-2.03223,0-2.9375-1.42383-2.9375-3.51465,0-2.49219,1.40918-3.96094,3.85645-3.96094,.66797,0,1.80957,.11914,2.87793,.54883v6.4375c0,1.7793-.44531,3.90039-3.58984,3.90039-.9043,0-2.10547-.16309-2.72852-.51855v-2.07715l1.58691-.11816v.66699c0,.29688,.05957,.40039,.31152,.47461,.20703,.07422,.45996,.10449,.77051,.10449,1.24609,0,1.70605-.66797,1.70605-2.13574v-.66797Zm-.10352-4.93848c-.31152-.10449-.65332-.16309-1.02344-.16309-1.06836,0-1.57227,.93359-1.57227,2.35742,0,1.08301,.17773,2.10645,1.34961,2.10645,.78613,0,1.24609-.50391,1.24609-1.26074v-3.04004Z"/></svg>