<svg id="Layer_1" data-name="Layer 1" xmlns="http://www.w3.org/2000/svg" viewBox="0 0 470.7 286.5"><defs><style>.cls-1{fill:#fff;}.cls-2{fill:#cce6fa;}.cls-3{fill:#eac9b0;}.cls-4{fill:#e0965f;}.cls-5{fill:#444;}.cls-6{fill:#f8dbc2;}.cls-7{fill:#eda566;}.cls-8{fill:#c56324;}.cls-9{fill:#2a3542;}.cls-10{fill:#283544;}.cls-11{fill:#663618;}.cls-12{fill:#1a222a;}.cls-13{fill:#432611;}.cls-14{fill:#fcf0e5;}.cls-15{fill:#f4c9a3;}.cls-16{fill:#2a69b1;}.cls-17{fill:#99cdf5;}.cls-18{fill:#2d3c4d;}.cls-19{fill:#818a94;}.cls-20{fill:#fb0;}.cls-21{fill:#f9dc4b;}.cls-22{fill:#999;}.cls-23{fill:#1e1e1e;}.cls-24{fill:#7fc100;}.cls-25{fill:#99ce24;}.cls-26{fill:#006837;}</style></defs><rect class="cls-1" width="470.7" height="286.53"/><path class="cls-2" d="M.6,257.6S56.4,67.5,286.3,67.5c201.7,0,105.3,190.1,105.3,190.1Z"/><polyline class="cls-3" points="297.6 206.4 299 217.2 224.6 226.3 215.5 152 289.9 142.9 296.4 196.6"/><polygon class="cls-4" points="207.4 221.4 229 195.1 226.9 184.3 216.5 184.8 194.6 211.4 207.4 221.4"/><path class="cls-5" d="M233.6,174.5a17.3,17.3,0,0,0,.7-5.5c-.3-8.9-6.7-14.9-7-15.2a.8.8,0,0,0-1.1,0,.9.9,0,0,0,0,1.2c.6.5,14.3,13.7.2,28.8l-.2.3c-.4,1.4-1.2,2.8-1.6,2.9a.8.8,0,0,0,.4,1.6c1.5-.4,2.3-2.8,2.6-3.8A24,24,0,0,0,233.6,174.5Z"/><rect class="cls-6" x="206.9" y="137.3" width="90.7" height="14.6" transform="translate(-15.6 31.6) rotate(-7)"/><rect class="cls-4" x="247.6" y="151.6" width="19.5" height="70.54" transform="translate(-20.7 32.5) rotate(-7)"/><rect class="cls-7" x="242.5" y="137.5" width="19.5" height="14.47" transform="translate(-15.7 31.6) rotate(-7)"/><path class="cls-8" d="M309.9,228.9c-5.2,2.7-19.4,4.5-30.5,2.8l1.2-6.2c2.9.2,13.3,4.4,24.6-5,6.8-5.6,18.8-47.1,18.6-48.1,7.7-5.1,5.3,9.8,9.7,2.2l.2.3a46.5,46.5,0,0,1,4.9,14.1,28.4,28.4,0,0,1-.9,13.6c-1.4,4.3-3.1-8.8-7-4.8S321,222.9,309.9,228.9Z"/><path class="cls-8" d="M249,222.3c-.3,5.6,20.5,9.8,25.9,10.5,14.8,1.7,23.9-4.8,15.9-5-11-.2-9.4-11.9-14.8-12.1a24.7,24.7,0,0,0-6.1.4c-6.3,1.2-4.1,3.9-5.5,4.1C257.4,221.1,249.1,219.1,249,222.3Z"/><path class="cls-9" d="M290.3,225c4.6.1,12.8-3.6,17.6-10,2.9-3.9,7.8-17.6,11.4-29,2.8-8.8,2.9-10,5.3-16.9,5.2-12.5,4.5,13.1,8.9,5.5l.2.3a46.5,46.5,0,0,1,4.9,14.1,28.4,28.4,0,0,1-.9,13.6c-1.4,4.3-3.1-8.8-7-4.8s-9.7,25.1-20.8,31.1c-3.9,2.1-9.8,4.3-18.8,4.2Z"/><path class="cls-8" d="M329.7,165.1l-3.2,7.4s-1.1,30.1,10.6,27.3,24.5-24.5,24.5-24.5l9-9.1-21.7-7Z"/><path class="cls-10" d="M320.7,257.2a227.3,227.3,0,0,0-1.9-23.4c-5.1-32.3,8.3-68.1,8.3-68.1l4-1.3c.4,12.6-.6,19.6,11.9,19.3,10.3-.3,12.1-15.4,23.2-18.8a28.7,28.7,0,0,1,9.1,2.6c2.9,1.3,2.8,6.5,2.4,12.3-2,26.6-13.3,70.6-5.6,76.8l.7.6"/><path class="cls-8" d="M360.5,246.6c-1,5.3,2.2,7.8,7.4,8.8s8.4.2,9.4-5c.3-1.4-1.3-4.7,3.5-7.9,1.3-.9.8-4.6-.7-4.3-3.7.8-7,1.2-9,.8C365.8,238,361.5,241.4,360.5,246.6Z"/><path class="cls-8" d="M410.6,212.6c-1.8,4-20.4,29.4-31.2,31.1l-.7-5.2c6.3-.3,15.5-10.8,18.2-17.6a71.8,71.8,0,0,0,3.5-10.2c1.3-7.1-25.3-20.5-26-20.9,1.6-6.8-16.2-22.1-2.2-19.5,9,1.6,18.5,13.1,24.8,19.8C399.8,193.1,414.8,203.6,410.6,212.6Z"/><path class="cls-9" d="M411.6,212.1c-1.9,4.1-16.1,23.5-23.2,28.6l-4.5-5c3.4-1.4,8.7-7.4,11.5-14.3a64.7,64.7,0,0,0,3.5-10.5c1.4-7.2-24.4-20.2-25-20.6-9.7-3.5-15.6-27.7-1.6-23.7,9.8,2.8,18.9,15.7,25.3,22.5C400.5,192.3,415.9,203,411.6,212.1Z"/><circle class="cls-11" cx="348.9" cy="91.1" r="61.4"/><rect class="cls-8" x="327.9" y="66" width="36.3" height="99.76" rx="11.2"/><ellipse class="cls-8" cx="367.4" cy="134.2" rx="6.7" ry="5.8" transform="translate(212.5 493.3) rotate(-86.7)"/><path class="cls-8" d="M328.2,82.4l-8.5,50.5a1.4,1.4,0,0,0,.8,1.5l8.4,3.8Z"/><path class="cls-12" d="M345.8,151.3c-.2,0-.4-.1-.4-.3a.3.3,0,0,1,.3-.5,6.8,6.8,0,0,0,5.8-5c.1-.2.3-.4.5-.3s.4.3.3.5a7.6,7.6,0,0,1-6.4,5.6Z"/><ellipse class="cls-12" cx="341.4" cy="119.1" rx="1.4" ry="2.6"/><ellipse class="cls-12" cx="318.9" cy="113.3" rx="1.4" ry="2.6"/><path class="cls-12" d="M342.2,118.8a.2.2,0,0,1-.2-.2l.2-.2a2.2,2.2,0,0,0,1.6-.7c0-.1.2-.1.3-.1a.2.2,0,0,1,0,.3A2.1,2.1,0,0,1,342.2,118.8Z"/><path class="cls-12" d="M318,113a1.1,1.1,0,0,1-1.2-1,.2.2,0,0,1,.1-.3c.2,0,.3.1.3.2a.8.8,0,0,0,.9.7l.2.2c0,.1,0,.2-.2.2Z"/><path class="cls-13" d="M355.1,108.1l-16.9-8a14,14,0,0,1,1.6-3.5s13.5,6.3,15.9,8A10,10,0,0,1,355.1,108.1Z"/><path class="cls-13" d="M321.4,100.7a32.4,32.4,0,0,0-2.5-2.4s-7.1,4.2-8.9,6.1a22.4,22.4,0,0,1,2.2,2.2S319.4,101.7,321.4,100.7Z"/><path class="cls-11" d="M326.7,92s3.9-11.6,18.5-8.5c3,.6,8.7,3.1,11,11.3,0,0,4.4,28.4,8,33.9,0,0,15.7-42.3,5.7-58.1,0,0-22.5-31.4-44.2-4.6C325.7,66,313.4,98.2,326.7,92Z"/><circle class="cls-14" cx="366.4" cy="138.2" r="1.6"/><path class="cls-12" d="M354.3,142.5a23.4,23.4,0,0,1-8.4,2.4,95.6,95.6,0,0,1-10.6-.4l7.6,1.4,1.2,6.8s4,2.6,6.6-.8S354.3,142.5,354.3,142.5Z"/><path id="Group_1" data-name="Group 1" class="cls-15" d="M163.9,139.4a8.1,8.1,0,0,1-.3,6.3l-1.5,3.4h0c-2.3,5.6-7.1,13.2-16.1,23.6,0,0-20.1,24.1-23,25.3a8.5,8.5,0,0,1-3.5.5,8.4,8.4,0,0,1-7.1-4.5,5.9,5.9,0,0,1-.4-.8,8.4,8.4,0,0,1,3.4-10.2c4.3-6.2,13.2-16.5,30.8-33.7h0l3.7-3.5"/><path id="Group_1-2" data-name="Group 1" class="cls-15" d="M149.7,142.6h0c.4-1.7,2.7-4.7,5.4-9.3.1,0,.1,0,.1-.1,1-1.7,2.1-3.6,3.1-5.7s2.9-7.5,4.5-11.9l1.2-3.3c1.4-3.9,3.5-10.1,3.8-11.1a32.6,32.6,0,0,0,.3-3.8,3.4,3.4,0,0,1-.1-1,5.3,5.3,0,0,1,5.5-5h2.4l.2.2h.2l.3.2h.1l.3.3h0l.3.3h0a4.7,4.7,0,0,1,1.3,3.5h0c0,.1,0,.2-.1.2h0a4.2,4.2,0,0,1-.9,2.7c-1.9,5.8-5.3,15.5-10,33.7h0l-2.9,12.5a3.6,3.6,0,0,1-.2,1.1h0a8.9,8.9,0,0,1-.8,1.7,7.7,7.7,0,0,1-4.6,3.5h0l-2.4.3a7.8,7.8,0,0,1-6.2-3.7,7.4,7.4,0,0,1-1.1-4.4A5.8,5.8,0,0,1,149.7,142.6Z"/><path id="Group_1-3" data-name="Group 1" class="cls-16" d="M126.6,166.9s-23,17.2-17.1,28.2c4.5,6.2,12.8,14.8,32-8.5A42.3,42.3,0,0,0,126.6,166.9Z"/><path class="cls-15" d="M181.6,84.8c7.3,7.3,6.7,10,2.4,15.6s-9.7,7.2-15.4,1.8-11.7-9.5-5.1-16.4C174,75,176.1,79.4,181.6,84.8Z"/><path class="cls-16" d="M88.4,174.8a61.8,61.8,0,0,1,32-.3,12.9,12.9,0,0,1,9.5,12.2c.5,15.3.3,45.9-6.7,56.2S89,257.5,81.2,246c-5.3-8-5.5-38.5-5.1-55.3A16.8,16.8,0,0,1,88.4,174.8Z"/><path class="cls-16" d="M127.7,257.8c1.5-19.7,2-35.4,1.6-43.1-.5-9.6-39.8-35.9-52.9,3.4a306,306,0,0,0-.5,39.5"/><path id="Group_1-4" data-name="Group 1" class="cls-15" d="M89.3,179.8a8.8,8.8,0,0,1,5.7,6.3c0,.3.1.6.1.9a8.5,8.5,0,0,1-5.9,9c-5.8,4.7-17.1,12.3-38.7,24.2h0l-4.4,2.4c0,.3.1.6.1.9a7.7,7.7,0,0,1-5.8,8.3h-.1l-1,.2a7.6,7.6,0,0,1-3.7-.6h-.2a7.5,7.5,0,0,1-4.5-6.3,7.5,7.5,0,0,1,1.9-6l2.3-3h.1c3.6-4.7,10.3-10.7,21.7-18.4,0,0,25.8-17.9,28.9-18.2A8.1,8.1,0,0,1,89.3,179.8Z"/><path id="Group_1-5" data-name="Group 1" class="cls-15" d="M43.5,218.6h0c1.5.9,3.4,4.2,6.7,8.4h.1c1.2,1.5,2.6,3.2,4.2,5l9.4,8.5,2.7,2.3c3.1,2.7,8.1,6.9,9,7.5s2,.9,3.5,1.7l.9.3a5.2,5.2,0,0,1,2.6,6.9,3,3,0,0,1-.4.8h-.1l-.2.3v.2c-.1,0-.1.1-.2.2l-.2.2h-.1c-.1.1-.2.1-.2.2h-.2l-.2.2c-.1,0-.1,0-.1.1l-.4.2h0l-.4.2h-.1a5.3,5.3,0,0,1-3.7-.1h-.1c0-.1-.1-.1-.1-.2h-.1a5.1,5.1,0,0,1-2.2-1.9c-4.7-3.8-12.5-10.5-27.7-21.5h-.1L35,231.5l-.9-.6H34a5.3,5.3,0,0,1-1.3-1.3,7.9,7.9,0,0,1-1.6-5.5h0a9.8,9.8,0,0,1,.6-2.3,7.7,7.7,0,0,1,5.7-4.4,7,7,0,0,1,4.5.5Z"/><path id="Group_1-6" data-name="Group 1" class="cls-16" d="M75.3,210.7s25-14.2,20.4-25.9c-3.6-6.7-10.8-16.2-32.7,4.5A42.5,42.5,0,0,0,75.3,210.7Z"/><rect class="cls-15" x="92.5" y="136.8" width="21.3" height="45.17" rx="10.6"/><path class="cls-17" d="M108.9,7.1c-3.8,3.6-8.3,11.5-8.3,11.5a35.2,35.2,0,0,1,1.8-11.8c-11.2.4-24.6,5.6-35,23.8,0,0-15.7,28.3,19.9,54.4,0,0-4.6-6.7,10.8-4.1,0,0,10.6-20,11-22.6,2.8-15.7,16.3-46.1,16.3-46.1A49.3,49.3,0,0,0,108.9,7.1Z"/><path class="cls-15" d="M128,144c1.5,14.3-7.8,27.1-20.7,28.4S82.8,163,81.4,148.7L73.7,72.8c-1.4-14.3,7.9-27.2,20.7-28.5s24.5,9.4,26,23.8Z"/><ellipse class="cls-15" cx="75.8" cy="134.6" rx="7.5" ry="8.6" transform="translate(-20.2 13.6) rotate(-9)"/><path class="cls-15" d="M119.4,63l17.5,63.8a2,2,0,0,1-.9,2.1l-10.3,6Z"/><ellipse class="cls-18" cx="107.1" cy="111.8" rx="1.8" ry="3.4" transform="translate(-10.7 11.3) rotate(-5.8)"/><ellipse class="cls-18" cx="135.3" cy="101.4" rx="1.8" ry="3.4" transform="translate(-9.5 14.1) rotate(-5.8)"/><path class="cls-19" d="M89.4,100.8l19.7-10.5s-1.4-5.9-3.9-8.9c0,0-17.1,8.9-20.1,11.4C85.1,92.8,86.8,99,89.4,100.8Z"/><path class="cls-19" d="M130.2,86.2a54.2,54.2,0,0,1,5.1-6.1s9.2,5.5,11.4,8L142,93.8S132.8,87.4,130.2,86.2Z"/><path class="cls-18" d="M105.7,154h-.1a10.3,10.3,0,0,1-9.1-6.4.7.7,0,1,1,1.3-.5,8.8,8.8,0,0,0,7.9,5.5.8.8,0,0,1,.7.7C106.3,153.7,106.1,154,105.7,154Z"/><path class="cls-17" d="M109.1,58.3s-10-11.4-23.5-13.9c0,0-4.1-14.7,30-8C115.6,36.4,111.8,47.4,109.1,58.3Z"/><circle class="cls-20" cx="256" cy="86.8" r="10.6"/><circle class="cls-21" cx="256" cy="86.8" r="7.4"/><circle class="cls-20" cx="288.3" cy="45.2" r="10.6"/><circle class="cls-21" cx="288.3" cy="45.2" r="7.4"/><rect class="cls-22" x="268.8" y="52.7" width="48.3" height="30.72" rx="3" transform="translate(-1 131.7) rotate(-25.3)"/><polygon class="cls-23" points="271.9 80.1 315.6 59.4 318.3 65.1 274.6 85.8 271.9 80.1"/><rect class="cls-24" x="171.8" y="37" width="86.9" height="41.65" rx="0.9" transform="translate(-6.8 76.9) rotate(-19.9)"/><rect class="cls-25" x="177.6" y="42.1" width="75.3" height="31.32" transform="translate(-6.8 76.9) rotate(-19.9)"/><circle class="cls-24" cx="215" cy="58.2" r="12.9"/><circle class="cls-24" cx="190.5" cy="67" r="5.9"/><circle class="cls-24" cx="239.4" cy="49.3" r="5.9" transform="translate(-4.8 38.2) rotate(-9)"/><circle class="cls-20" cx="237" cy="23.7" r="18.2"/><circle class="cls-21" cx="237" cy="23.7" r="12.8"/><path class="cls-18" d="M231.1,21.1h1.4a5.4,5.4,0,0,1,6-4.5,8,8,0,0,1,3.5,1.1l-.2,3.2h-2.4V19.9a.4.4,0,0,0-.2-.6l-.9-.2a2.7,2.7,0,0,0-3,2.3l3.9.3v1.7l-8.2-.6Zm-.2,2.8,8.2.6v1.7l-3.9-.3c0,1.6.8,2.4,2.6,2.5a3.6,3.6,0,0,0,2.5-.8l1.1,2a5.4,5.4,0,0,1-4.1,1.2c-3.3-.2-5-2-5.1-5.1h-1.3Z"/><circle class="cls-20" cx="270.7" cy="36.6" r="15.5"/><circle class="cls-21" cx="270.7" cy="36.6" r="10.9"/><path class="cls-18" d="M265.3,36.5l1.1-.3a4.6,4.6,0,0,1,3.2-5.6,5.8,5.8,0,0,1,3.1-.3l.9,2.5-1.8.8-.3-.8c-.1-.3-.2-.4-.5-.4h-.7a2.1,2.1,0,0,0-1.5,2.8l3.1-1.1.5,1.4-6.6,2.3Zm.8,2.3,6.6-2.3.5,1.4L270.1,39c.5,1.1,1.4,1.5,2.8,1a2.5,2.5,0,0,0,1.7-1.5l1.5,1.2a4.9,4.9,0,0,1-2.7,2.4c-2.7.9-4.6.1-5.7-2.3l-1.1.4Z"/><path class="cls-26" d="M209,58l1.3-.4a5.5,5.5,0,0,1,4-6.5,7.6,7.6,0,0,1,3.6-.2l1,3-2.2.9-.3-1c-.1-.3-.2-.5-.5-.5H215a2.7,2.7,0,0,0-1.9,3.3l3.7-1.2.6,1.7-7.9,2.4Zm.8,2.6,7.9-2.4.5,1.7L214.5,61a2.4,2.4,0,0,0,3.3,1.4,3.3,3.3,0,0,0,2-1.7l1.8,1.4a5.8,5.8,0,0,1-3.4,2.7c-3.1,1-5.3-.1-6.6-2.9l-1.3.4Z"/><path class="cls-18" d="M252.9,85.2h.8a3,3,0,0,1,3.2-2.5,4.2,4.2,0,0,1,1.9.7v1.7h-1.3v-.6c0-.2,0-.3-.2-.3h-.4a1.3,1.3,0,0,0-1.6,1.2l2.1.2v.9l-4.4-.3Zm-.1,1.5,4.5.4V88h-2.1c0,.8.4,1.2,1.4,1.3a1.6,1.6,0,0,0,1.3-.4l.6,1a2.8,2.8,0,0,1-2.2.7,2.5,2.5,0,0,1-2.7-2.8h-.7Z"/><path class="cls-18" d="M284.8,45.3l.7-.3a3.2,3.2,0,0,1,2.2-3.8,4,4,0,0,1,2.1-.2l.7,1.7-1.3.6-.2-.6c-.1-.2-.1-.3-.3-.3h-.5a1.5,1.5,0,0,0-1,2l2.1-.8.3.9-4.5,1.6Zm.5,1.5,4.5-1.6.4,1-2.2.7a1.5,1.5,0,0,0,2,.8,2.5,2.5,0,0,0,1.2-1.1l1,.8a3.5,3.5,0,0,1-1.9,1.7,2.9,2.9,0,0,1-3.9-1.6l-.7.3Z"/><path class="cls-15" d="M177.3,86.8s15.2-4,13-8.4-9.8-3.5-16,.8S177.3,86.8,177.3,86.8Z"/><path class="cls-2" d="M1.3,258.3H468.7a.7.7,0,1,0,0-1.4H1.3a.7.7,0,0,0,0,1.4Z"/><path class="cls-15" d="M85.6,267.2c-7.2,6.5-9.7,5.9-14.8,1.5s-6.4-9.5-1-14.7,9.6-10.5,15.7-3.9C95.3,260.5,91,262.3,85.6,267.2Z"/></svg>