<?xml version="1.0" encoding="utf-8"?>
<!-- Generator: Adobe Illustrator 23.0.1, SVG Export Plug-In . SVG Version: 6.00 Build 0)  -->
<svg version="1.1" id="Layer_1" xmlns="http://www.w3.org/2000/svg" xmlns:xlink="http://www.w3.org/1999/xlink" x="0px" y="0px"
	 viewBox="0 0 734.6 110.3" style="enable-background:new 0 0 734.6 110.3;" xml:space="preserve">
<style type="text/css">
	.st0{fill-rule:evenodd;clip-rule:evenodd;fill:#EDA566;}
	.st1{fill-rule:evenodd;clip-rule:evenodd;fill:#2D3C4D;}
</style>
<g>
	<g>
		<g>
			<defs>
				<path id="SVGID_1_" d="M145.9,18.3v9.2l5.6,0.3l-3.4,47.8c-0.3,2.6-0.8,3.4-2.9,3.7l-3.3,0.3v8.9h25.2v-9.2l-5.3-0.3l2.1-38h0.2
					l15,40h11.1l15.4-40.5h0.3l1.8,35.3c0.1,2.6-0.3,3.3-2.3,3.6l-3.3,0.3v8.9h25.3v-9.2l-5.4-0.3l-3.3-48c-0.3-2.2,0.7-3.2,2.8-3.5
					l3.2-0.3v-8.9h-23.4l-16.2,44.6h-0.3l-15.6-44.6H145.9L145.9,18.3z M281.8,37.4c-8.1-3.1-15.8-3.8-19.5-3.8
					c-19.2,0-28.5,11.9-28.5,30.5c0,14.4,5.5,25.8,21.2,25.8c6.8,0,11.6-2.9,14.1-6.8l0.4,0.1l0.4,5.3h17.2V80l-3-0.2
					c-1.8-0.1-2.3-0.8-2.3-3V37.4L281.8,37.4z M267.1,71c0,4.2-3.1,8.1-8.9,8.1c-7.6,0-9.5-7.6-9.5-15.7c0-10,2.7-18.9,11.9-18.9
					c2.7,0,5.2,0.5,6.6,1.1V71L267.1,71z M321.2,45.4c1.2,0,2,0.1,2.7,0.3c0.7,0.3,1,0.8,1,2.5v7l12-0.8v-19
					c-2.9-1.3-6.7-1.8-9.8-1.8c-8.8,0-13.4,5.3-15.1,9.5h-0.2V35h-19.4v8.9l3.6,0.3c1.8,0.1,2.4,0.8,2.4,3v29.2
					c0,2.4-0.3,3.2-2.5,3.5l-3.4,0.3v8.3h29.4v-8.8l-8.8-0.4V55.2C313.1,49.6,316.1,45.4,321.2,45.4L321.2,45.4L321.2,45.4z
					 M362.5,66.2c2.2-0.3,4.2-0.6,6.4-1.5L379,88.5h17.8v-8.8l-5.7-0.3l-9.7-20.7c5.1-4.1,8-9.4,8.7-14.5l4.8-0.6V35h-23.4v8.5
					l2.8,0.3c1.4,0.3,2.2,0.6,2.2,2c0,4.9-7.5,9.4-14,10.2V13.2h-20.8v8.9l3.6,0.3c2,0.1,2.4,0.8,2.4,3.1v51.1c0,2.4-0.6,3-2.4,3.3
					l-3.4,0.3v8.3h25.3v-8.8l-4.8-0.3V66.2L362.5,66.2z M399,45.2h7.2v25.9c0,9,0.8,18.9,17.4,18.9c5.5,0,10.6-1.4,13.6-3.4l-2.4-10
					c-1.7,1-4.2,1.8-7.1,1.8c-4.2,0-6.5-1.7-6.5-7.9V45.2h12.6l0.5-10.2h-13.1V22.8H413c-2.2,6.3-5.1,11.9-12.7,13.3L399,45.2
					L399,45.2z M447.3,98.2c0,2.6-0.5,3.1-2.5,3.4l-3.3,0.4v8.3h29.7v-8.8l-9.1-0.5V87.3c2.9,1.6,6.8,2.6,10.6,2.6
					c15,0,22.7-11.4,22.7-29.9c0-17-6.7-26.5-19.1-26.5c-5.9,0-11.9,2.1-15.2,7.9h-0.2V35h-19.6v8.9l3.5,0.2
					c1.7,0.1,2.5,1.1,2.5,3.1V98.2L447.3,98.2z M462.2,53c0-3.4,2.8-8.2,8.9-8.2c7.7,0,9.3,8.4,9.3,17.1c0,9.6-2.4,17.1-10.4,17.1
					c-2.7,0-5.7-0.9-7.8-2.5V53L462.2,53z M521.8,13.2H501v8.9l3.5,0.3c2,0.1,2.5,0.8,2.5,3.1v50.9c0,2.6-0.4,3.1-2.4,3.4l-3.4,0.4
					v8.3h26.1v-8.8l-5.5-0.3V13.2L521.8,13.2z M580.8,37.4c-8.1-3.1-15.8-3.8-19.5-3.8c-19.2,0-28.5,11.9-28.5,30.5
					c0,14.4,5.5,25.8,21.2,25.8c6.8,0,11.6-2.9,14.1-6.8l0.4,0.1l0.4,5.3h17.2V80l-3-0.2c-1.8-0.1-2.3-0.8-2.3-3V37.4L580.8,37.4z
					 M566.2,71c0,4.2-3.1,8.1-8.9,8.1c-7.6,0-9.5-7.6-9.5-15.7c0-10,2.7-18.9,11.9-18.9c2.7,0,5.2,0.5,6.6,1.1V71L566.2,71z
					 M640.2,37.4c-8.1-3.1-15.8-3.8-19.5-3.8c-19.2,0-28.5,11.9-28.5,30.5c0,14.4,5.5,25.8,21.2,25.8c6.8,0,11.6-2.9,14.1-6.8
					l0.4,0.1l0.4,5.3h17.2V80l-3-0.2c-1.8-0.1-2.3-0.8-2.3-3V37.4L640.2,37.4z M625.6,71c0,4.2-3.1,8.1-8.9,8.1
					c-7.6,0-9.5-7.6-9.5-15.7c0-10,2.6-18.9,11.9-18.9c2.7,0,5.2,0.5,6.6,1.1V71L625.6,71z M649.2,45.2h7.2v25.9
					c0,9,0.9,18.9,17.4,18.9c5.5,0,10.6-1.4,13.6-3.4l-2.4-10c-1.7,1-4.2,1.8-7.1,1.8c-4.2,0-6.5-1.7-6.5-7.9V45.2H684l0.5-10.2
					h-13.2V22.8h-8.2c-2.2,6.3-5.1,11.9-12.7,13.3L649.2,45.2L649.2,45.2z M720.9,44.3c1.3,0.4,1.5,1.2,1.5,2.8v4.3l10.5-0.8V37.4
					c-4.7-2.5-11-3.8-16.9-3.8c-12.7,0-22.2,6-22.2,17.3c0,11.4,8.1,13.8,15.7,15.8c5.9,1.4,10.1,2.4,10.1,7c0,4.5-3.3,6.1-8.3,6.1
					c-2.1,0-4.3-0.4-5.7-0.9c-1.3-0.4-1.6-1.1-1.6-2.6v-4.7l-10.6,0.8v14c4.1,2.2,12.3,3.6,18.8,3.6c13.7,0,22.4-6.4,22.4-17.8
					c0-11-8.4-13.4-16.1-15.7c-5.6-1.7-10.2-2.5-10.2-7.3c0-3.7,3.2-5.5,7.4-5.5C717.4,43.6,719.3,43.7,720.9,44.3L720.9,44.3
					L720.9,44.3z"/>
			</defs>
			<use xlink:href="#SVGID_1_"  style="overflow:visible;fill-rule:evenodd;clip-rule:evenodd;fill:#2D3C4D;"/>
			<clipPath id="SVGID_2_">
				<use xlink:href="#SVGID_1_"  style="overflow:visible;"/>
			</clipPath>
		</g>
	</g>
	<g>
		<path class="st0" d="M54.6,0.1c30.2,0,54.6,24.3,54.6,54.3c0,30-24.4,54.3-54.6,54.3S0,84.4,0,54.4C0,24.4,24.4,0.1,54.6,0.1"/>
		<path class="st1" d="M73,41.6L50.7,20c-4.1,4-4.1,10.5,0,14.5l14.8,14.3L43.3,70.4c4.1,4,10.8,4,14.9,0L73,56
			C77.1,52.1,77.1,45.6,73,41.6L73,41.6z"/>
		<path class="st1" d="M65,87.4c5.8,0,10.5-4.6,10.5-10.2H59.8H44.3c-5.8,0-10.5,4.6-10.5,10.2h15.7H65"/>
	</g>
</g>
</svg>
