<?xml version="1.0" encoding="UTF-8" standalone="yes"?>
<svg width="99" height="96" viewBox="0 0 33 32" fill="none" xmlns="http://www.w3.org/2000/svg">
  <g id="tenant-coin--nlnl">
    <path id="BG" fill-rule="evenodd" clip-rule="evenodd" d="M16.3334 0C7.49644 0 0.333374 7.164 0.333374 16C0.333374 24.836 7.49644 32 16.3334 32C25.1703 32 32.3334 24.836 32.3334 16C32.3334 7.164 25.1703 0 16.3334 0Z" fill="#EDA566"/>
    <path id="Sign" fill-rule="evenodd" clip-rule="evenodd" d="M21.1638 16.6521C22.2691 15.5412 22.2691 13.7398 21.1638 12.6288L15.1977 6.63275C14.0923 7.74347 14.0923 9.54477 15.1977 10.6556L19.1626 14.6402L13.1955 20.6364C14.3009 21.7485 16.0936 21.7485 17.1992 20.6364L21.1638 16.6521ZM14.8745 25.3673H19.0345C20.5861 25.3673 21.8436 24.0922 21.8436 22.5196H17.6298H13.47C11.9181 22.5196 10.6606 23.7951 10.6606 25.3673H14.8745Z" fill="#2D3C4D"/>
  </g>
</svg>